<?xml version="1.0" encoding="UTF-8"?>
<svg width="68px" height="68px" viewBox="0 0 68 68" version="1.1" xmlns="http://www.w3.org/2000/svg" xmlns:xlink="http://www.w3.org/1999/xlink">
    <!-- Generator: Sketch 41.2 (35397) - http://www.bohemiancoding.com/sketch -->
    <title>logo</title>
    <desc>Created with Sketch.</desc>
    <defs></defs>
    <g id="Page-1" stroke="none" stroke-width="1" fill="none" fill-rule="evenodd">
        <g id="logo" transform="translate(2.000000, 2.000000)">
            <g id="Group">
                <g id="Layer_2" stroke="#E91E63" stroke-width="3">
                    <path d="M40.8703021,23.1283985 C46.6985851,28.9678467 51.2766042,35.2305287 53.9534685,40.7286437 C57.1789216,47.3533793 57.6363442,52.9550958 55.312153,55.2836169 C52.890065,57.7103448 46.9582562,57.2310805 39.9263327,53.6923218 C34.6099273,51.0169502 28.664413,46.4440153 23.1319006,40.9007816 C17.4595182,35.2175326 12.7364895,29.1864521 10.0789598,23.75859 C6.7162065,16.8898697 6.4008566,11.0391418 8.77656597,8.65888123 C11.0817897,6.34911877 16.516283,6.6903295 23.0565201,9.85514176 C28.5826692,12.52941 34.985239,17.2319387 40.8703021,23.1283985 Z" id="Shape"></path>
                    <path d="M28.7487266,19.8773946 C36.7092008,17.736092 44.4108604,16.8914636 50.5022409,17.3146973 C57.8413155,17.8247356 62.9131013,20.2262069 63.7654149,23.4067126 C64.6537055,26.7211034 61.2757782,31.6302222 54.7033576,35.9656705 C49.7341185,39.2432797 42.8102486,42.1189885 35.2535985,44.151908 C27.5060497,46.235954 19.9319006,47.3222375 13.9111281,46.9170268 C6.29231358,46.4044138 1.07637476,43.7551571 0.20509369,40.5040307 C-0.640122371,37.349272 2.36959082,32.8030651 8.37335373,28.7076782 C13.4459962,25.2472644 20.7104245,22.0396628 28.7487266,19.8773946 Z" id="Shape"></path>
                    <path d="M19.8814837,28.7763372 C22.0054761,20.7970575 25.1214073,13.6897471 28.5295602,8.61388506 C32.6358394,2.49808429 37.2454302,-0.705103448 40.4213231,0.143570881 C43.7308451,1.02780077 46.2888872,6.4115249 46.7552428,14.2818084 C47.1080382,20.2322146 46.1366577,27.6784061 44.1204742,35.2529655 C42.0533843,43.0189119 39.210218,50.135908 35.8528489,55.1597854 C31.6046195,61.5171188 26.7089254,64.7215326 23.4625468,63.8540996 C20.3123518,63.0124138 17.8843901,58.12941 17.3414302,50.8725211 C16.8826616,44.7411494 17.7369331,36.8335939 19.8814837,28.7763372 Z" id="Shape"></path>
                </g>
                <g id="Layer_3" transform="translate(25.575526, 26.973180)" fill="#E91E63">
                    <path d="M6.48565966,11.0797241 C6.36096367,11.0797241 6.25547992,11.0364444 6.16920841,10.9500077 L1.68076482,6.61149425 C1.63279541,6.57311877 1.56683748,6.51071264 1.48289101,6.42415326 C1.39894455,6.33771648 1.26592734,6.18041379 1.08371702,5.952 C0.901506692,5.72395402 0.738386233,5.48965517 0.594600382,5.24947126 C0.450814532,5.00928736 0.322447419,4.71859004 0.209743786,4.37750192 C0.0971625239,4.03641379 0.040749522,3.70488889 0.040749522,3.38304981 C0.040749522,2.32606897 0.345208413,1.49970881 0.954248566,0.903846743 C1.56328872,0.30810728 2.40483365,0.0101762452 3.47888337,0.0101762452 C3.77624474,0.0101762452 4.07960229,0.0617931034 4.38883365,0.165149425 C4.69806501,0.268505747 4.98588145,0.407785441 5.25203824,0.583233716 C5.51807266,0.758559387 5.74715105,0.923095785 5.93890631,1.07684291 C6.13066157,1.23059004 6.31299426,1.39390038 6.48553728,1.56689655 C6.65820268,1.39390038 6.84029063,1.23059004 7.03216826,1.07684291 C7.22404589,0.923095785 7.45287954,0.758559387 7.7191587,0.583233716 C7.98531549,0.407785441 8.27288719,0.268505747 8.58236329,0.165149425 C8.89159465,0.0619157088 9.1949522,0.0101762452 9.4921912,0.0101762452 C10.5663633,0.0101762452 11.4079082,0.30810728 12.0169484,0.903846743 C12.6261109,1.49958621 12.9305698,2.32606897 12.9305698,3.38304981 C12.9305698,4.44481226 12.3814914,5.52582375 11.2833346,6.62608429 L6.80223327,10.9501303 C6.71583939,11.036567 6.61035564,11.0797241 6.48565966,11.0797241 Z" id="Shape"></path>
                </g>
            </g>
        </g>
    </g>
</svg>